<?xml version="1.0" encoding="utf-8"?>
<!-- Generator: Adobe Illustrator 19.0.0, SVG Export Plug-In . SVG Version: 6.00 Build 0)  -->
<svg version="1.1" id="Layer_1" xmlns="http://www.w3.org/2000/svg" xmlns:xlink="http://www.w3.org/1999/xlink" x="0px" y="0px"
	 viewBox="-374 166 450.3 150" style="enable-background:new -374 166 450.3 150;" xml:space="preserve">
<style type="text/css">
	.st0{enable-background:new    ;}
	.st1{fill:#FFFFFF;}
</style>
<g>
	<g class="st0">
		<path class="st1" d="M-214.5,231.5c0-1.6,0.7-2.9,2-3.8c0.9-0.6,1.9-0.9,3-0.9h7.3c2.9,0,5.4,1,7.4,3.1c2,2,2.9,4.3,2.9,7.1v6.4
			c0,2.9-1,5.3-3.1,7.3c-2,1.9-4.5,2.9-7.3,2.9h-12.4V231.5z M-197.2,243.3v-6.4c0-1.9-0.7-3.3-2-4.4c-0.9-0.7-1.8-1.1-2.9-1.1h-7
			v17.5h7c1.6,0,2.9-0.7,3.9-2.2C-197.6,245.7-197.2,244.6-197.2,243.3z"/>
		<path class="st1" d="M-182.5,242.6v6.3h13.8l2.5,4.7h-16.7c-1.7,0-3.1-0.6-4.1-1.9c-0.7-0.8-1-1.8-1-2.8v-17.3
			c0-1.6,0.7-2.8,2-3.8c0.9-0.6,1.9-1,3.1-1h16.7l-2.5,4.7h-13.8v6.6h12.7v4.7H-182.5z"/>
		<path class="st1" d="M-150.6,248.1l7.5-21.4h5.8l-7.9,22.4c-1.2,3.1-2.9,4.7-5.4,4.7c-2.4,0-4.2-1.6-5.4-4.7l-7.9-22.4h5.8
			L-150.6,248.1z"/>
		<path class="st1" d="M-129.1,242.6v6.3h13.8l2.5,4.7h-16.7c-1.7,0-3.1-0.6-4.1-1.9c-0.7-0.8-1-1.8-1-2.8v-17.3
			c0-1.6,0.7-2.8,2-3.8c0.9-0.6,1.9-1,3.1-1h16.7l-2.5,4.7h-13.8v6.6h12.7v4.7H-129.1z"/>
		<path class="st1" d="M-103.4,248.9h12.8l2.5,4.7h-15.6c-1.7,0-3.1-0.7-4.1-2c-0.6-0.8-1-1.7-1-2.8v-22.1h5.4V248.9z"/>
		<path class="st1" d="M-73.2,253.9h-3.6c-2.9,0-5.4-1-7.4-3.1c-2-2-2.9-4.3-2.9-7.1v-7.1c0-2.9,1-5.3,3.1-7.3
			c2-1.9,4.5-2.9,7.3-2.9h3.6c2.9,0,5.4,1,7.4,3.1c2,2,2.9,4.3,2.9,7.1v7.1c0,2.9-1,5.3-3.1,7.3C-68,252.9-70.4,253.9-73.2,253.9z
			 M-76.8,249.2h3.6c1.6,0,2.9-0.7,3.9-2.2c0.7-1,1-2.1,1-3.3v-7.1c0-1.9-0.7-3.3-2-4.4c-0.9-0.7-1.8-1.1-2.9-1.1h-3.6
			c-1.6,0-2.9,0.7-3.9,2.2c-0.7,1-1.1,2.1-1.1,3.4v7.1c0,1.8,0.7,3.3,2,4.4C-78.9,248.9-77.9,249.2-76.8,249.2z"/>
		<path class="st1" d="M-53.2,231.4v22.1h-5.4v-22.1c0-1.6,0.7-2.9,2-3.8c0.9-0.6,1.9-0.9,3-0.9h7.3c3.3,0,5.9,1,7.9,2.9
			c1.7,1.7,2.5,3.7,2.5,6.2v1c0,3-1.2,5.4-3.6,7.1c-1.9,1.3-4.1,2-6.7,2h-6.6l2.9-4.7h3.7c2.2,0,3.7-0.8,4.5-2.3
			c0.3-0.6,0.5-1.4,0.5-2.2v-1c0-2.1-1-3.5-2.9-4.1c-0.6-0.2-1.3-0.3-2.1-0.3H-53.2z"/>
		<path class="st1" d="M-21.1,238.4l7.5-11.6h5.8l-7.9,12.7c-0.9,1.5-1.8,2.5-2.6,3.1v11h-5.4v-11c-0.9-0.7-1.8-1.7-2.7-3.1
			l-7.9-12.7h5.8L-21.1,238.4z"/>
		<path class="st1" d="M7.4,253.9H3.8c-2.9,0-5.4-1-7.4-3.1c-2-2-2.9-4.3-2.9-7.1v-7.1c0-2.9,1-5.3,3.1-7.3c2-1.9,4.5-2.9,7.3-2.9
			h3.6c2.9,0,5.4,1,7.4,3.1c2,2,2.9,4.3,2.9,7.1v7.1c0,2.9-1,5.3-3.1,7.3C12.6,252.9,10.2,253.9,7.4,253.9z M3.8,249.2h3.6
			c1.6,0,2.9-0.7,3.9-2.2c0.7-1,1-2.1,1-3.3v-7.1c0-1.9-0.7-3.3-2-4.4c-0.9-0.7-1.8-1.1-2.9-1.1H3.8c-1.6,0-2.9,0.7-3.9,2.2
			c-0.7,1-1.1,2.1-1.1,3.4v7.1c0,1.8,0.7,3.3,2,4.4C1.7,248.9,2.7,249.2,3.8,249.2z"/>
	</g>
	<g>
		<path class="st1" d="M-249.9,260.3c0,0.2,0.3,0.5,0.5,0.7c0.2-0.2,16.9-31.4,17.3-32.6c-1.1-0.1-13.6,0-13.8,0.4
			c-2.8,5.3-5.4,10.7-8.4,16c-0.6,1.1,0,1.2,0.3,1.8C-252.3,251-249.8,255.2-249.9,260.3z"/>
		<path class="st1" d="M-286.5,208c1.8,3.8,3.8,7.4,5.2,11.3c1.4,3.9,3.3,7.6,4.8,11.5c1.8,4.6,3.8,9.1,5.7,13.6
			c1.9,4.5,4,9,6.1,13.4c1.3,2.7,1,4.5-1.5,5.7c-1.8,0.8-3.9,1-5.9,1.1c-1.3,0.1-2.9,0.1-4.1,0.3c0.6,1,1.5,2.6,2.2,3.6
			c1.4,2.1,2.9,4.1,4.2,6.2c0.9,1.4,0.5,2.1,3.6,1.2c3-1,5-1.6,7.2-3c6.7-4.3,8.3-9.7,6.1-17.4c-1.6-5.7-20.4-48.3-21.6-50.5
			c-2,0-9.6,0-11.5-0.1c-1.3,0-1.1,0.9-1.1,1.7C-286.9,207.1-286.6,207.6-286.5,208z"/>
		<path class="st1" d="M-308,271.6c4.9,3.4,9.5,5.5,15.3,5.4c2.8,0,16.5,0,20.5,0c1.4,0,1.8-0.5,1-1.8c-1.6-2.7-3.4-5.2-4.9-8
			c-0.9-1.7-2-2.4-4-2.3c-4,0.2-8,0.2-12,0c-2.3-0.1-5-0.4-6.8-1.6c-4.1-2.9-6.9-6.9-6-12.4c0.3-1.7,0.6-3.6,1.5-4.8
			c1.5-1.9,3.3-3.9,5.4-5c1.9-1,4.3-1,6.5-1.1c2.6-0.1,13.4-0.1,17-0.1c0.5,0-4.6-12-5.1-12c-4.5,0-11.8-0.1-16.3,0.1
			c-2.4,0.1-4.9,1.1-7.1,2c-2.8,1.1-5.8,3.5-8.9,7.4c-5.3,6.6-6.5,13.5-4.7,21.3C-315.4,263.6-312.4,268.5-308,271.6z"/>
	</g>
</g>
</svg>
