<?xml version="1.0" encoding="utf-8"?>
<!-- Generator: Adobe Illustrator 19.0.0, SVG Export Plug-In . SVG Version: 6.00 Build 0)  -->
<svg version="1.1" id="Layer_1" xmlns="http://www.w3.org/2000/svg" xmlns:xlink="http://www.w3.org/1999/xlink" x="0px" y="0px"
	 viewBox="-546 188.7 107 105.3" style="enable-background:new -546 188.7 107 105.3;" xml:space="preserve">
<style type="text/css">
	.st0{enable-background:new    ;}
	.st1{fill:#FFFFFF;}
</style>
<g>
	<g class="st0">
		<path class="st1" d="M-543.1,281.5c0-0.7,0.3-1.3,0.9-1.7c0.4-0.3,0.8-0.4,1.3-0.4h3.2c1.3,0,2.4,0.5,3.2,1.4
			c0.9,0.9,1.3,1.9,1.3,3.1v2.8c0,1.3-0.5,2.3-1.4,3.2c-0.9,0.8-1.9,1.3-3.2,1.3h-5.4V281.5z M-535.5,286.7v-2.8
			c0-0.8-0.3-1.5-0.9-1.9c-0.4-0.3-0.8-0.5-1.3-0.5h-3v7.6h3c0.7,0,1.3-0.3,1.7-1C-535.7,287.7-535.5,287.3-535.5,286.7z"/>
		<path class="st1" d="M-529.1,286.4v2.7h6l1.1,2h-7.3c-0.7,0-1.3-0.3-1.8-0.8c-0.3-0.4-0.4-0.8-0.4-1.2v-7.6c0-0.7,0.3-1.2,0.9-1.6
			c0.4-0.3,0.8-0.4,1.3-0.4h7.3l-1.1,2h-6v2.9h5.5v2H-529.1z"/>
		<path class="st1" d="M-515.2,288.8l3.3-9.3h2.5l-3.4,9.8c-0.5,1.4-1.3,2-2.4,2.1c-1.1,0-1.8-0.7-2.3-2.1l-3.4-9.8h2.5
			L-515.2,288.8z"/>
		<path class="st1" d="M-505.8,286.4v2.7h6l1.1,2h-7.3c-0.7,0-1.3-0.3-1.8-0.8c-0.3-0.4-0.4-0.8-0.4-1.2v-7.6c0-0.7,0.3-1.2,0.9-1.6
			c0.4-0.3,0.8-0.4,1.3-0.4h7.3l-1.1,2h-6v2.9h5.5v2H-505.8z"/>
		<path class="st1" d="M-494.6,289.1h5.6l1.1,2h-6.8c-0.8,0-1.4-0.3-1.8-0.9c-0.3-0.4-0.4-0.8-0.4-1.2v-9.6h2.4V289.1z"/>
		<path class="st1" d="M-481.4,291.3h-1.6c-1.3,0-2.4-0.5-3.2-1.4c-0.9-0.9-1.3-1.9-1.3-3.1v-3.1c0-1.2,0.5-2.3,1.4-3.2
			c0.9-0.8,1.9-1.3,3.2-1.3h1.6c1.3,0,2.4,0.5,3.2,1.4c0.9,0.9,1.3,1.9,1.3,3.1v3.1c0,1.3-0.5,2.3-1.4,3.2
			C-479.2,290.9-480.2,291.3-481.4,291.3z M-483,289.3h1.6c0.7,0,1.3-0.3,1.7-1c0.3-0.4,0.4-0.9,0.4-1.5v-3.1c0-0.8-0.3-1.5-0.9-1.9
			c-0.4-0.3-0.8-0.5-1.3-0.5h-1.6c-0.7,0-1.3,0.3-1.7,0.9c-0.3,0.4-0.5,0.9-0.5,1.5v3.1c0,0.8,0.3,1.4,0.9,1.9
			C-483.9,289.1-483.5,289.3-483,289.3z"/>
		<path class="st1" d="M-472.7,281.5v9.7h-2.4v-9.6c0-0.7,0.3-1.3,0.9-1.7c0.4-0.3,0.8-0.4,1.3-0.4h3.2c1.4,0,2.6,0.4,3.4,1.3
			c0.7,0.7,1.1,1.6,1.1,2.7v0.4c0,1.3-0.5,2.4-1.6,3.1c-0.8,0.6-1.8,0.9-2.9,0.9h-2.9l1.3-2h1.6c1,0,1.6-0.3,2-1
			c0.1-0.3,0.2-0.6,0.2-0.9v-0.4c0-0.9-0.4-1.5-1.2-1.8c-0.3-0.1-0.6-0.1-0.9-0.1H-472.7z"/>
		<path class="st1" d="M-458.7,284.6l3.3-5.1h2.5l-3.4,5.5c-0.4,0.6-0.8,1.1-1.1,1.3v4.8h-2.4v-4.8c-0.4-0.3-0.8-0.7-1.2-1.4
			l-3.4-5.5h2.5L-458.7,284.6z"/>
		<path class="st1" d="M-446.3,291.3h-1.6c-1.3,0-2.4-0.5-3.2-1.4c-0.8-0.9-1.3-1.9-1.3-3.1v-3.1c0-1.2,0.5-2.3,1.4-3.2
			c0.9-0.8,1.9-1.3,3.2-1.3h1.6c1.3,0,2.4,0.5,3.2,1.4c0.8,0.9,1.3,1.9,1.3,3.1v3.1c0,1.3-0.5,2.3-1.4,3.2
			C-444,290.9-445.1,291.3-446.3,291.3z M-447.8,289.3h1.6c0.7,0,1.3-0.3,1.7-1c0.3-0.4,0.4-0.9,0.4-1.5v-3.1c0-0.8-0.3-1.5-0.9-1.9
			c-0.4-0.3-0.8-0.5-1.3-0.5h-1.6c-0.7,0-1.3,0.3-1.7,0.9c-0.3,0.4-0.5,0.9-0.5,1.5v3.1c0,0.8,0.3,1.4,0.9,1.9
			C-448.8,289.1-448.3,289.3-447.8,289.3z"/>
	</g>
	<g>
		<path class="st1" d="M-467.7,246.9c0,0.2,0.3,0.5,0.5,0.7c0.2-0.2,16.9-31.4,17.3-32.6c-1.1-0.1-13.6,0-13.8,0.4
			c-2.8,5.3-5.4,10.7-8.4,16c-0.6,1.1,0,1.2,0.3,1.8C-470.1,237.7-467.5,241.9-467.7,246.9z"/>
		<path class="st1" d="M-504.2,194.6c1.8,3.8,3.8,7.4,5.2,11.3c1.4,3.9,3.3,7.6,4.8,11.5c1.8,4.6,3.8,9.1,5.7,13.6s4,9,6.1,13.4
			c1.3,2.7,1,4.5-1.5,5.7c-1.8,0.8-3.9,1-5.9,1.1c-1.3,0.1-2.9,0.1-4.1,0.3c0.6,1,1.5,2.6,2.2,3.6c1.4,2.1,2.9,4.1,4.2,6.2
			c0.9,1.4,0.5,2.1,3.6,1.2c3-1,5-1.6,7.2-3c6.7-4.3,8.3-9.7,6.1-17.4c-1.6-5.7-20.4-48.3-21.6-50.5c-2,0-9.6,0-11.5-0.1
			c-1.3,0-1.1,0.9-1.1,1.7C-504.7,193.8-504.4,194.2-504.2,194.6z"/>
		<path class="st1" d="M-525.8,258.2c4.9,3.4,9.5,5.5,15.3,5.4c2.8,0,16.5,0,20.5,0c1.4,0,1.8-0.5,1-1.8c-1.6-2.7-3.4-5.2-4.9-8
			c-0.9-1.7-2-2.4-4-2.3c-4,0.2-8,0.2-12,0c-2.3-0.1-5-0.4-6.8-1.6c-4.1-2.9-6.9-6.9-6-12.4c0.3-1.7,0.6-3.6,1.5-4.8
			c1.5-1.9,3.3-3.9,5.4-5c1.9-1,4.3-1,6.5-1.1c2.6-0.1,13.4-0.1,17-0.1c0.5,0-4.6-12-5.1-12c-4.5,0-11.8-0.1-16.3,0.1
			c-2.4,0.1-4.9,1.1-7.1,2c-2.8,1.1-5.8,3.5-8.9,7.4c-5.3,6.6-6.5,13.5-4.7,21.3C-533.2,250.3-530.1,255.2-525.8,258.2z"/>
	</g>
</g>
</svg>
